<svg xmlns="http://www.w3.org/2000/svg" viewBox="0 0 300 300"><path d="M130.15 135.51c-.23.07-.51.12-.75.24-2.36 1.17-4.72 2.33-7.05 3.54-.51.26-.9.73-1.45.96-.56.23-1.09.51-1.64.78-.54.26-1.08.55-1.63.79-1.33.58-2.6 1.28-3.94 1.83-.89.36-1.77.78-2.68 1.1-.91.32-1.83.63-2.72 1-1.5.63-3 1.31-4.38 2.18-.51.32-.94.75-1.38 1.17-1.22 1.16-2.29 2.44-3.29 3.82-1.4 1.93-2.66 3.94-4 5.9-.95 1.39-1.75 2.88-2.75 4.25-.56.77-1.09 1.56-1.61 2.37-.5.77-1.03 1.53-1.52 2.31-.71 1.15-1.52 2.24-2.26 3.37-.62.95-1.22 1.93-1.88 2.85-.65.9-1.27 1.82-1.89 2.74-.63.94-1.32 1.86-1.85 2.86-.71 1.34-1.61 2.53-2.44 3.79-.83 1.25-1.61 2.53-2.44 3.79a910.68 910.68 0 0 1-4.07 6.05c-1.36 2.02-2.72 4.03-4.09 6.05-.27.97-1.01 1.72-1.26 2.71-.11.43-.37.82-.54 1.24-.05.14-.03.3-.05.58.24-.12.39-.19.54-.26 1.53-.71 3.08-1.39 4.63-2.07 1.07-.47 2.16-.95 3.3-1.26.4-.61 1.11-.59 1.69-.85 1.19-.52 2.43-.92 3.67-1.31.95-.3 1.89-.66 2.87-.88 1.16-.26 2.28-.68 3.45-.93.88-.18 1.78-.37 2.66-.65.72-.23 1.5-.35 2.26-.46.74-.11 1.46-.29 2.19-.37.62-.07 1.24-.23 1.87-.25.4-.01.79-.12 1.19-.18.4-.06.83.14 1.2-.19.05-.05.19 0 .29 0 1.35-.04 2.68-.31 4.03-.2 1.4-.38 2.82-.15 4.23-.19 1.44-.04 2.87-.03 4.31 0 .66.01 1.32.15 1.98.18.65.03 1.33-.11 1.95.04.6.14 1.25-.01 1.77.21.62.26 1.26-.06 1.78.18.53.25 1.09.07 1.63.33.42.2.98.13 1.47.19.93.11 1.85.29 2.77.46.71.13 1.43.33 2.14.48.78.16 1.55.42 2.36.49.56.05 1.1.32 1.67.45.92.22 1.82.51 2.75.71.65.14 1.27.39 1.9.61.77.27 1.56.49 2.32.77.74.28 1.49.51 2.23.78.24.08.64.1.65.51.4.06.73.34 1.09.43 1.28.31 2.42.94 3.63 1.41 2.11.81 4.14 1.82 6.19 2.8.87.42 1.77.78 2.62 1.25 1.01.56 2.04 1.06 3.05 1.62 1.38.77 2.74 1.59 4.13 2.34 1.29.7 2.5 1.55 3.78 2.24 1.4.76 2.64 1.76 4.06 2.49.92.47 1.76 1.13 2.63 1.71.44.29.87.59 1.37.93-.87.66-1.7 1.29-2.58 1.95-.91-.63-1.77-1.22-2.63-1.81-.51-.35-1.02-.69-1.54-1.02-.8-.52-1.59-1.04-2.4-1.54-1.01-.63-2.04-1.24-3.04-1.88-.98-.62-2.04-1.1-2.98-1.79-.17-.12-.38-.18-.57-.28-1.25-.69-2.5-1.37-3.76-2.05-.62-.33-1.24-.77-1.98-.89-.3-.44-.95-.33-1.24-.78-.5.03-.84-.33-1.26-.51-1.78-.75-3.51-1.61-5.33-2.27-1.1-.4-2.19-.87-3.27-1.32-.92-.38-1.88-.68-2.82-.99-1.06-.35-2.13-.69-3.2-1.02-1.16-.36-2.33-.69-3.56-1.05 0 0-.02-.09-.04-.19-1.04-.29-2.11-.58-3.18-.79-.82-.16-1.6-.49-2.46-.48-.27 0-.54-.11-.8-.19-.81-.22-1.67-.2-2.48-.4-.89-.23-1.81-.16-2.68-.4-.66-.18-1.34-.06-1.97-.2-.67-.16-1.35-.02-1.98-.19-1.06-.29-2.11-.09-3.16-.17-.92-.07-1.84-.16-2.76-.19-.95-.03-1.89.01-2.84-.01-.8-.02-1.56.29-2.37.22-.78-.07-1.59-.12-2.34.02-.63.12-1.26.1-1.88.18-.56.07-1.11.17-1.68.2-.56.04-1.13.12-1.68.22-.4.07-.79.12-1.2.16-.4.04-.81.08-1.19.2-.86.26-1.76.23-2.61.54-.42.16-.91.05-1.38.21-.95.31-1.98.35-2.92.76-.44.19-.96.17-1.43.25-.04.14-.06.23-.08.31-.06.02-.12.08-.16.07-.34-.1-.6.14-.9.21-2.35.59-4.65 1.37-6.94 2.17-1.25.44-2.49.92-3.72 1.42-1.06.43-2.05 1.05-3.18 1.3-.52.51-1.27.56-1.86.96-.41.28-.98.34-1.4.62-.41.28-.95.32-1.27.73-1.61.55-3.02 1.53-4.56 2.24-1.07.5-2.04 1.23-3.06 1.84-.7.42-1.43.82-2.13 1.24-.63.38-1.24.79-1.86 1.18-.28.17-.58.31-.88.47-.66-.82-1.28-1.58-1.92-2.37.42-.34.75-.83 1.3-1.13.49-.27.72-.91 1.31-1.09.2-.44.65-.63.97-.95 2.11-2.14 4.25-4.25 6.36-6.39.81-.82 1.55-1.71 2.36-2.6v-.31c.72-.79 1.5-1.52 2.12-2.36.86-1.16 1.88-2.18 2.67-3.39.51-.79 1.21-1.45 1.78-2.21.83-1.12 1.71-2.2 2.47-3.38.73-1.12 1.61-2.14 2.38-3.23.92-1.31 1.82-2.64 2.7-3.98 1.02-1.57 2.04-3.14 3.03-4.73 1.17-1.86 2.43-3.67 3.51-5.59.71-1.26 1.72-2.35 2.37-3.63.67-1.31 1.56-2.48 2.3-3.74.67-1.16 1.52-2.24 2.14-3.43.69-1.34 1.65-2.49 2.36-3.82.66-1.24 1.54-2.37 2.32-3.55.14-.2.27-.41.4-.63-.12-.63-.65-.98-1.12-1.49-.5.09-1.1.09-1.57.33-.39.2-.8-.06-1.18.27-.23.21-.71.16-1.07.22-.57.11-1.1.35-1.68.46-.92.17-1.81.51-2.73.73-.74.17-1.45.43-2.18.64-1.08.31-2.18.58-3.24.93-.69.23-1.39.44-2.08.66-1.67.54-3.36 1.02-5 1.64-.39.15-.81.27-1.21.39-.38.12-.77.33-1.12.35-.56.03-.95.48-1.49.47-.52-.01-.85.56-1.41.4-.72.41-1.51.6-2.29.85-.61.19-1.2.42-1.8.62-.3.1-.54.26-.78.47-.22.2-.64.16-.95.29-1 .43-2.04.74-3.07 1.11-.6.21-1.2.41-1.8.62-.29.1-.58.17-.86.28-.28.11-.55.24-.86.3-.62.12-1.19.43-1.8.62-1.27.38-2.5.91-3.77 1.3-.36.11-.65.38-1.01.4-.4.02-.69.24-1.04.34-.44.13-.88.37-1.29.41-.5.06-.84.42-1.3.44-.48.01-.87.26-1.31.4-1.01.32-2.01.65-3.02.98-1.3.42-2.61.81-3.92 1.18-.96.27-1.9.63-2.86.9-1.12.31-2.25.54-3.37.86-.82.24-1.64.45-2.46.67-.91.24-1.82.53-2.75.68-.61.1-1.2.29-1.79.43-.74.18-1.48.34-2.22.53-1.04.27-2.1.47-3.18.63-.73.11-1.44.39-2.19.37-.33.34-.81.07-1.16.27-.4.23-.86-.02-1.21.15-.41.19-.85.05-1.19.2-.41.18-.8.13-1.2.17-.34.04-.66.14-1 .19-.31.04-.64-.06-.9.2-.03.03-.13 0-.19 0-.85.06-1.73.04-2.56.22-.8.17-1.6.04-2.37.2-.83.18-1.68 0-2.46.2-.74.19-1.45.07-2.16.18-.49-.79-.96-1.54-1.43-2.29.29-.09.57-.2.86-.27.3-.08.61.06.94-.12.25-.14.63-.03.94-.09.6-.13 1.23-.12 1.82-.34.23-.08.51-.01.76-.05.24-.04.47-.19.7-.18.96.07 1.86-.27 2.77-.45.83-.16 1.67-.36 2.49-.59.7-.2 1.43-.33 2.13-.51.65-.16 1.31-.33 1.98-.46.64-.12 1.3-.3 1.93-.51.66-.21 1.38-.3 2.08-.44.63-.13 1.31-.18 1.86-.46.39-.2.87.13 1.15-.31.42.05.75-.31 1.19-.22.15.03.33-.13.5-.18.83-.2 1.67-.38 2.5-.59 1.39-.35 2.78-.66 4.16-1.07.61-.18 1.24-.31 1.86-.48.88-.24 1.77-.46 2.65-.69 1.09-.29 2.16-.64 3.26-.91.7-.18 1.43-.34 2.1-.59.57-.21 1.16-.4 1.73-.52.57-.12 1.11-.35 1.68-.47.67-.13 1.35-.34 2.01-.56 1.56-.52 3.11-1.04 4.72-1.38.56-.12 1.08-.4 1.62-.57.55-.18 1.11-.32 1.65-.47v-.22c.05-.03.11-.1.16-.09.62.08 1.14-.27 1.69-.43.87-.26 1.75-.5 2.62-.77.57-.18 1.14-.4 1.72-.56 1.32-.35 2.61-.79 3.91-1.2.98-.31 1.96-.66 2.94-.91 1.21-.3 2.37-.77 3.59-1.06.91-.21 1.79-.56 2.7-.8 1.52-.41 2.99-1.02 4.54-1.34.62-.12 1.21-.39 1.82-.57 1.57-.48 3.1-1.06 4.72-1.39.61-.13 1.21-.39 1.81-.6.57-.2 1.16-.4 1.73-.52.57-.12 1.11-.36 1.68-.47.67-.13 1.34-.36 2.02-.56.61-.17 1.2-.47 1.82-.56.64-.1 1.2-.49 1.89-.44.39.03.85-.16 1.2-.38.46-.3 1-.42 1.48-.72.45-.29.88-.59 1.26-.96 1.58-1.57 1.61-1.32 2.89-3.98.34-.71.77-1.39.79-2.22.63-1.05.89-2.25 1.33-3.37.76-1.91 1.64-3.77 2.19-5.75.43-.54.29-1.32.74-1.85.07-1.08.76-2 .82-3.09.37-.55.38-1.22.6-1.81.31-.83.47-1.69.76-2.53.17-.49.13-1.06.33-1.53.2-.48.12-1.05.46-1.47.1-1.23.53-2.4.81-3.59.28-1.15.49-2.32.91-3.44.13-.34.08-.72.2-1.09.2-.65.16-1.37.24-2.06.05-.46.15-.92.19-1.39.03-.45-.11-.95.03-1.36.31-.92.09-1.85.18-2.77.05-.5.15-.99.19-1.49.03-.49-.12-1.02.03-1.46.27-.79.12-1.64.53-2.43.38-.71.62-1.5.96-2.24.26-.57.57-1.14.66-1.79 0-.03.1-.05.22-.11.17.29.44.58.51.9.16.85.63 1.57.88 2.39.23.77.73 1.46.99 2.23.19.54.49 1.03.56 1.65.06.54.47 1.03.71 1.55.69 1.48 1.27 3 1.92 4.5.67 1.55 1.33 3.11 1.94 4.68.55 1.41 1.16 2.79 1.73 4.18.42 1.03.84 2.07 1.3 3.09.43.96.79 1.96 1.18 2.94.18.45.35.9.53 1.35.48 1.2.99 2.4 1.49 3.59.43 1.03.83 2.07 1.31 3.08.41.87.79 1.76 1.17 2.65.05.11 0 .25 0 .48.25-.08.45-.11.63-.19 1.34-.62 2.68-1.25 4.03-1.87 3.66-1.66 7.22-3.55 10.81-5.35 1.54-.77 3.04-1.65 4.56-2.46 1.02-.54 2.01-1.14 3.01-1.73.33-.19.64-.34.89-.68.22-.3.64-.45.99-.64 1.14-.59 2.2-1.31 3.31-1.95.79-.46 1.57-.95 2.34-1.44 1.32-.83 2.62-1.7 3.96-2.5 1.18-.71 2.33-1.48 3.47-2.24 1.18-.78 2.41-1.5 3.53-2.39 1.23-.97 2.58-1.79 3.88-2.67.54-.36 1.08-.72 1.6-1.09.53-.38 1.05-.78 1.57-1.17.33-.24.66-.48.99-.71-.34-.91-.76-1.69-1.47-2.3-.41-.35-.72-.8-1.07-1.21-.42-.48-1.01-.82-1.57-1.15-.78-.47-1.59-.89-2.4-1.29-.76-.37-1.54-.71-2.31-1.05-.74-.32-1.56-.47-2.31-.8-.33-.14-.77-.06-1.08-.23-.34-.2-.78-.02-.98-.2-.33-.29-.8.03-1.04-.36 0-.01-.06 0-.09 0-.82-.06-1.64-.18-2.47-.18-1.22 0-2.41-.3-3.64-.22-1.2.07-2.42.02-3.62.02s-2.48.01-3.72 0c-1.01-.01-1.99.21-2.98.36-1.08.15-2.09.48-3.09.85-.76.28-1.52.56-2.24 1-.51.32-1.06.59-1.56.94-.69.48-1.38.98-2 1.54-.43.39-1.07.57-1.25 1.22-.53.26-.87.75-1.31 1.1-1.27 1.02-2.44 2.15-3.65 3.23-.81.73-1.6 1.47-2.39 2.22-.55.52-1.13 1.02-1.71 1.51-.61.52-1.03 1.25-1.79 1.59-.02.43-.5.39-.69.67-.18.27-.44.48-.68.7-.08.07-.2.09-.47.21.39-.86.27-1.62.25-2.36-.02-.85.33-1.56.72-2.25.45-.8.95-1.57 1.45-2.34.27-.42.59-.81.9-1.19.38-.47.86-.87 1.15-1.39.35-.61.91-.99 1.34-1.5.41-.49.77-1.04 1.26-1.43.92-.71 1.77-1.5 2.7-2.2 1.61-1.2 3.37-2.1 5.11-3.07.91-.16 1.65-.73 2.52-1.02.85-.29 1.76-.47 2.55-.93.59.08 1.05-.34 1.6-.38.56-.04 1.07-.26 1.6-.39.61-.14 1.25-.14 1.87-.22.4-.05.79-.15 1.19-.19.39-.03.81.09 1.17-.03 1.01-.33 2.04-.12 3.06-.17.62-.03 1.24-.03 1.86 0 .53.03 1.06.15 1.59.18.52.03 1.07-.1 1.56.04.47.13.96.06 1.39.19.47.15.95.06 1.39.19 1.46.42 3.02.49 4.43 1.14.67-.07 1.22.47 1.89.41.57.44 1.31.44 1.94.76 1.13.56 2.32 1.01 3.46 1.57 1.62.8 3.15 1.73 4.64 2.74 1 .68 1.97 1.41 3.04 2.17.56-.51 1.15-1.06 1.76-1.6.26-.23.56-.4.81-.63.27-.24.47-.58.78-.74.29-.15.45-.41.71-.59.54-.37.98-.87 1.47-1.32.27-.25.53-.49.81-.72.29-.24.46-.63.89-.7.08-.01.14-.13.21-.2.97-.9 1.88-1.87 2.91-2.68.85-.67 1.5-1.56 2.45-2.1.03-.02.05-.05.07-.07.95-.87 1.9-1.74 2.87-2.64-.21-.68-.73-1.15-1.13-1.69-.42-.58-.9-1.13-1.31-1.71-.51-.73-1.13-1.43-1.43-2.25-.64-1.74-1.83-3.16-2.71-4.75-.74-1.33-1.45-2.71-2.45-3.89-.66-1.62-1.75-3-2.61-4.5-.76-1.32-1.47-2.69-2.45-3.89-.38-1.11-1.19-1.97-1.69-3.02-.49-1.04-1.1-2.04-1.76-3-.58-.85-1.02-1.8-1.54-2.69-.61-1.03-1.25-2.03-1.86-3.05-.55-.91-1.09-1.84-1.63-2.75-.2-.34-.36-.71-.6-1.02-.76-.97-1.24-2.11-1.92-3.13-.82-1.24-1.45-2.61-2.3-3.85a1.53 1.53 0 0 1-.21-.4c-.36-1.16-1.13-2.08-1.74-3.1-.23-.39-.48-.78-.69-1.19-.86-1.67-1.85-3.28-2.77-4.92-.6-1.06-1.2-2.13-1.84-3.17-.39-.63-.73-1.33-1.06-2.01-.28-.58-.67-1.1-.89-1.69-.26-.68-.63-1.31-.92-1.97-.3-.69-.67-1.35-.98-2.04-.47-1.05-1.11-2.03-1.48-3.11-.39-1.12-1.09-2.09-1.43-3.23-.1-.34-.34-.63-.49-.97-.48-1.14-1.08-2.23-1.56-3.37-.47-1.11-1.01-2.19-1.5-3.3-.28-.63-.46-1.33-.97-1.91.03-.37.03-.79.1-1.2.06-.35.17-.71.33-1.04.23-.48.17-.98.19-1.5.25.21.83.96.98 1.26.36.77.81 1.5 1.27 2.22.11.18.21.37.3.56.49 1.05 1.06 2.06 1.71 3.02.13.2.16.46.29.66.58.97 1.02 2.01 1.72 2.92.2.26.25.61.41.9.47.85.92 1.72 1.47 2.53.12.17.2.37.29.56.51 1.04 1.12 2.02 1.69 3.03.34.6.68 1.2.96 1.85.47 1.12 1.08 2.18 1.77 3.18.1.15.21.31.28.47.44 1.11 1.1 2.1 1.73 3.11.42.67.71 1.41 1.13 2.08.77 1.24 1.37 2.58 2.2 3.8.42.62.65 1.37 1.06 2 .74 1.12 1.34 2.33 2.04 3.48.35.58.72 1.18.96 1.85.27.76.7 1.48 1.17 2.16.42.61.71 1.28 1.1 1.9.94 1.47 1.77 3 2.66 4.49.55.91 1.11 1.82 1.63 2.75.73 1.3 1.52 2.58 2.25 3.87.51.9 1.14 1.73 1.56 2.68.14.33.33.66.56.94.28.34.56.67.56 1.15 0 .1.11.21.19.31.64.86 1.11 1.83 1.67 2.74.37.6.69 1.22 1.08 1.8.8 1.19 1.47 2.47 2.21 3.7.53.88 1.09 1.76 1.58 2.67.55 1.01 1.18 2 1.78 2.99.54.89 1.12 1.76 1.66 2.65.49.81.85 1.7 1.46 2.43.04.05.11.09.12.15.18 1.06 1.03 1.78 1.42 2.75.14.36.4.68.61 1.02.21.33.44.66.65.98.76-.72 1.51-1.51 2.35-2.2.38-.31.73-.71 1.08-1.09.4-.44.78-.9 1.2-1.32 1.17-1.19 2.35-2.36 3.53-3.54 1.29-1.29 2.55-2.63 3.89-3.87 3.95-3.66 7.67-7.54 11.5-11.32.29-.28.61-.52.98-.83v-.28c.25-.24.4-.53.6-.57.29-.06.14-.33.31-.42.14-.07.28-.12.4-.21.15-.12.28-.27.42-.41l7.34-7.34c.23-.23.45-.47.7-.69.2-.18.45-.32.64-.51s.33-.58.52-.6c.34-.03.22-.55.59-.45-.05-.37.53-.3.47-.67 1.47-1.04 2.58-2.45 3.86-3.68 1.3-1.24 2.59-2.49 3.8-3.82.65-.71 1.25-1.47 1.96-2.11 3.58-3.21 6.84-6.74 10.28-10.1.21-.21.47-.37.65-.6.16-.19.51-.22.5-.55.38.06.29-.54.67-.48-.14-.39.57-.2.41-.6 1.16-.74 1.98-1.85 2.96-2.78 1-.94 2.02-1.87 2.9-2.92 1.04-1.24 2.22-2.35 3.35-3.5.26-.26.56-.49.85-.72.26-.2.38-.56.64-.76.3-.22.57-.48.86-.71.3-.24.56-.55.85-.84.49.2.98.4 1.55.63-.08.2-.14.39-.22.58-.33.84-.65 1.69-1.02 2.52-.13.31-.35.59-.58.84-4.77 5.18-9.85 10.05-14.84 15-1.9 1.89-3.84 3.74-5.78 5.59-.54.51-1.04 1.06-1.56 1.58-1.5 1.48-3 2.96-4.57 4.36-.84.75-1.62 1.56-2.47 2.28-.91.77-1.73 1.62-2.61 2.41-.24.22-.47.48-.78.65-.33.18-.57.53-.84.81-.28.28-.53.59-.84.83-1.09.86-1.98 1.93-3.03 2.82-1.26 1.07-2.38 2.26-3.56 3.4-.21.2-.39.45-.63.61-.22.15-.4.47-.55.49-.33.05-.19.59-.58.47-.28.34-.53.71-.84 1.02-1.68 1.69-3.37 3.37-5.05 5.07-.51.52-.99 1.08-1.45 1.65-.27.33-.68.48-.91.87-.23.38-.63.66-.95.98l-.97.97-.97.97-.97.97c-.32.32-.67.62-.97.97-1.52 1.81-3.28 3.4-4.9 5.11-.49.52-1.04 1.01-1.43 1.62-.44.68-1.04 1.21-1.6 1.78-.57.58-1.16 1.15-1.73 1.74-.23.24-.38.6-.65.78-.32.21-.45.55-.71.78-.29.26-.56.55-.83.83-.27.27-.55.54-.86.85 3.34 4.6 6.83 9.03 10.64 13.33 0 .02 0 .15.02.33 1.18 1.24 2.46 2.47 3.59 3.81 1.46 1.75 3.16 3.25 4.73 4.89.53.55 1.14 1 1.7 1.52.57.54 1.06 1.18 1.68 1.64.57.42 1.02.98 1.57 1.4 1 .76 1.85 1.71 2.93 2.38.45.28.83.69 1.24 1.03.66.54 1.31 1.08 1.99 1.59.64.48 1.35.89 1.96 1.4.43.37.8.79 1.29 1.11.46.3.88.67 1.37.96.51.3.93.73 1.44 1.02 1.49.83 2.9 1.8 4.39 2.63 2.04 1.14 4.08 2.28 6.2 3.24 1.29.58 2.59 1.16 3.9 1.7 1.37.57 2.76 1.05 4.13 1.63 1.05.45 2.18.72 3.28 1.07.84.26 1.67.57 2.52.77.86.2 1.74.39 2.58.64.97.28 1.98.35 2.93.72.51.2 1.15.06 1.66.25.47.17.96.18 1.43.32.51.15 1.11.11 1.67.24.82.18 1.68.1 2.48.4.03.01.07 0 .1 0 1-.09 1.96.34 2.96.2.57-.08 1.09.29 1.68.21.58-.07 1.2-.12 1.76 0 1.57.35 3.15.11 4.72.17 1.21.04 2.42-.04 3.62.03.72.04 1.37-.24 2.08-.22.72.02 1.45.09 2.15-.02.56-.08 1.1-.23 1.67-.13-.29 1.02-.31 2.1-.71 3.04-.14.03-.21.06-.26.05-1.94-.13-3.84.34-5.78.18-.03.14-.05.23-.08.36h-4.04c-.03-.1-.05-.19-.07-.28-.06-.02-.11-.06-.17-.07-.45-.03-.95.07-1.33-.1-.39-.18-.86.12-1.16-.29-.48.06-.93-.09-1.39-.18-.85-.17-1.73-.21-2.57-.43-.41-.11-.84-.05-1.19-.2-.38-.15-.76-.07-1.1-.18-.76-.25-1.57-.24-2.32-.54-.22-.09-.51 0-.77-.04-.24-.03-.47-.14-.7-.19-1.3-.24-2.6-.47-3.9-.75-.81-.17-1.65-.31-2.47-.46-.71-.13-1.44-.25-2.14-.49-.75-.26-1.57-.29-2.36-.46-.89-.2-1.77-.44-2.66-.67-.62-.16-1.23-.35-1.85-.5-1.27-.3-2.53-.65-3.79-1.03-1.56-.48-3.1-1.03-4.67-1.5-.41-.12-.8-.31-1.18-.46-1.23-.49-2.43-1.08-3.6-1.72-2.21-1.19-4.35-2.5-6.38-3.96-1.34-.96-2.71-1.89-4-2.93-.94-.76-1.86-1.56-2.92-2.17-.35-.2-.48-.59-.81-.83-.86-.64-1.64-1.4-2.49-2.05a51.08 51.08 0 0 1-2.41-2c-.74-.64-1.51-1.24-2.26-1.88-1.06-.91-2.09-1.87-3.16-2.77-.86-.72-1.61-1.57-2.48-2.27-.91-.73-1.67-1.61-2.54-2.37-.69-.6-1.34-1.24-2.01-1.85-.75-.68-1.44-1.42-2.16-2.14l-2.23-2.23c-.02-.14-.03-.29-.05-.43-.13-.08-.27-.14-.37-.24-.13-.13-.19-.32-.32-.45-1.08-1.08-1.95-2.33-2.93-3.48-.79-.94-1.5-1.94-2.25-2.9-.98-1.27-1.94-2.54-2.99-3.75-.22-.26-.39-.56-.64-.92-.74.72-1.4 1.43-2.13 2.04-1.2 1-2.35 2.06-3.51 3.11-1.16 1.05-2.38 2.03-3.5 3.13-.43.42-.91.79-1.37 1.18-.41.34-.81.69-1.22 1.03-.47.38-.78.91-1.36 1.21-.33.17-.5.63-.78.92-.17.17-.29.41-.6.44-.21.02 0 .62-.53.35 1.05 1.39 2.08 2.65 3.09 3.92 1.41 1.78 2.63 3.68 3.91 5.54.7 1.02 1.24 2.16 1.85 3.24.3.53.62 1.05.85 1.61.19.46.55.84.67 1.28.14.48.4.88.58 1.33.25.65.53 1.29.65 1.99.08.48.49.87.4 1.4.48.53.35 1.28.69 1.87.2.36-.07.83.28 1.16.06.87.29 1.72.43 2.57.12.73.02 1.48.19 2.17.28 1.12.12 2.24.16 3.36.02.43-.14.86-.18 1.29-.03.45.1.95-.04 1.36-.14.41-.05.84-.19 1.19-.15.38-.1.74-.18 1.1-.12.57-.25 1.14-.41 1.69-.35 1.22-.65 2.46-1.12 3.65-.31.78-.63 1.57-.91 2.37-.19.54-.46 1.05-.73 1.56-.26.47-.42 1-.69 1.48-.63 1.08-1.18 2.2-1.87 3.25-.8 1.22-1.62 2.42-2.56 3.55-.3.36-.62.72-.92 1.08-.26.31-.49.64-.76.94-.33.36-.68.71-1.04 1.04-.18.17-.38.34-.6.43-.2.09-.04.51-.4.4-.3.37-.72.59-.94 1.07-.14.3-.55.49-.86.7-1.13.8-2.23 1.64-3.46 2.29-.96.51-1.92 1.03-2.9 1.52-1.32.67-2.73 1.14-4.11 1.66-.65.24-1.34.38-2 .6-.66.23-1.36.29-2.02.56-.32.13-.72.09-1.09.19-.57.16-1.18.14-1.77.23-.43.06-.84.17-1.35.28l1.95 1.95c.44.44.88.87 1.32 1.32.38.39.9.63 1.16 1.14.48.06.41.68.92.83.38.11.65.6.99.9 1.17 1.03 2.34 2.05 3.73 2.81 1.09.6 2.16 1.24 3.26 1.84.53.29 1.18.48 1.57.9.58.63 1.39.78 2.03 1.27.64.48 1.5.65 2.18 1.09 1.28.83 2.67 1.45 4.03 2.12 1.41.7 2.84 1.33 4.28 1.97 1.3.58 2.63 1.06 3.94 1.6.9.37 1.82.65 2.72 1.01.76.31 1.56.49 2.34.73.67.2 1.37.29 2.03.53.38.14.78.05 1.18.22.5.21 1.11.16 1.67.23.33.05.66.15 1 .19.34.04.67.09 1 .17.59.13 1.25-.05 1.85.05 2.09.36 4.19.12 6.29.17 2.09.05 4.18 0 6.27.02 1.06.01 2.08-.29 3.15-.22 1.04.07 2.1.12 3.13-.02.83-.11 1.67-.03 2.46-.2.83-.18 1.65-.11 2.47-.17.37-.03.73-.13 1.1-.19.33-.06.71.15 1.01-.18.04-.05.19-.03.28 0 .84.14 1.66-.1 2.46-.24 1-.18 2.03-.16 3.01-.52.39-.14.86-.02 1.29-.2.39-.16.85-.15 1.28-.22.43-.07.95 0 1.26-.24.41-.3.93.08 1.24-.35 1.11.04 2.09-.54 3.18-.62.62-.04 1.21-.38 1.82-.56.97-.28 1.95-.49 2.9-.8 1.38-.45 2.73-.97 4.1-1.46 1.34-.47 2.63-1.06 3.95-1.57 2.26-.88 4.36-2.09 6.56-3.08.26-.12.41-.39.64-.55.59-.38 1.17-.8 1.8-1.09.81-.37 1.54-.87 2.28-1.34.94-.59 1.82-1.28 2.73-1.93.2-.14.42-.27.61-.42.94-.73 1.86-1.49 2.81-2.21.99-.75 1.98-1.5 3-2.21.49-.34 1.14-.33 1.66-.18.71.2 1.5.39 2 1.14-.07.09-.12.2-.21.28-.8.67-1.57 1.38-2.41 2-1.07.78-2.18 1.5-3.28 2.23-1.23.81-2.46 1.62-3.7 2.41-.7.44-1.44.8-2.11 1.29-.27.2-.48.47-.8.61-.33.15-.6.45-.94.56-.4.13-.69.4-1.03.6-.31.18-.66.3-.98.46-.33.16-.63.37-.96.52-.31.14-.6.29-.87.5-.23.18-.54.28-.81.4-.71.33-1.43.64-2.13 1-.67.35-1.32.78-2.03 1.02-.84.28-1.63.63-2.43 1-.79.37-1.63.65-2.45.94-1.83.64-3.63 1.35-5.52 1.82-.29.36-.77.09-1.13.36-.28.21-.75.13-1.06.25-.66.27-1.37.3-2.03.54-.54.19-1.12.3-1.7.4-.79.15-1.59.27-2.38.43-.79.15-1.59.25-2.39.36-.37.05-.69.26-1.1.21-.33-.04-.7-.1-1 .18-.02.02-.06 0-.1 0-.89.06-1.78.12-2.66.2-.37.03-.73.13-1.09.19-.33.06-.72-.15-1 .19-.03.03-.13 0-.19 0-.85.06-1.71.12-2.56.2-.4.04-.79.14-1.19.19-.4.05-.79.05-1.2.16-.69.2-1.44.21-2.16.22-.86 0-1.69.35-2.56.21-.53.33-1.12.14-1.68.2-.5.05-.99.15-1.49.19-.49.03-1.02-.12-1.46.03-.77.27-1.52.15-2.28.16-2.35.02-4.7.03-7.05 0-.95-.01-1.92-.05-2.85-.22-.4-.07-.79-.13-1.2-.17-.4-.04-.81-.08-1.19-.2-.79-.24-1.63-.24-2.43-.51-.59-.21-1.25-.28-1.88-.43-.74-.17-1.46-.43-2.2-.62-.94-.24-1.88-.49-2.81-.79-1.87-.6-3.73-1.24-5.59-1.87-1.46-.49-2.93-.96-4.39-1.46-.66-.23-1.29-.51-1.94-.75-1.19-.44-2.34-.98-3.49-1.51-.8-.37-1.64-.64-2.34-1.2-.59-.02-.95-.53-1.47-.71-.51-.18-.96-.52-1.42-.81-.75-.47-1.49-.97-2.24-1.45-.33-.21-.68-.41-1.01-.63-.23-.15-.46-.32-.68-.48-.21-.15-.27-.4-.52-.57-.91-.6-1.76-1.29-2.61-1.99-.49-.4-.92-.87-1.43-1.26-.81-.62-1.54-1.35-2.27-2.05-.78-.75-1.59-1.47-2.27-2.3-.85-1.03-1.82-1.96-2.65-3.01-.95-1.22-1.97-2.39-2.96-3.58-.43-.52-.89-.99-1.37-1.54.72-.19 1.35.17 2.01.26.09.01.17.07.26.07.82.07 1.66.05 2.46.22 1.51.32 3.02.1 4.53.17.5.03.99-.01 1.49-.18.44-.14.96.14 1.38-.21.9.14 1.7-.35 2.58-.43.67-.06 1.32-.4 1.97-.66 1.39-.54 2.75-1.13 3.97-2 .27-.19.56-.39.88-.48.58-.17.74-.77 1.21-1.05.4-.24.78-.55 1.09-.9.28-.31.71-.47.9-.88 1.19-.64 1.87-1.81 2.72-2.77.94-1.06 1.76-2.24 2.58-3.41.95-1.37 1.7-2.85 2.69-4.19.28-.38.43-.87.6-1.32.16-.43.66-.69.59-1.22.38-.27.5-.71.69-1.09.41-.84.8-1.69 1.18-2.55.1-.22.07-.49.15-.72.07-.2.21-.37.34-.59-.02-.43-.07-.93.2-1.34.36-.53-.02-1.2.38-1.71-.04-.96.32-1.89.2-2.86-.04-.32-.03-.66 0-.98.13-1.29-.18-2.56-.23-3.84-.01-.38-.16-.78-.18-1.19-.02-.37-.12-.73-.19-1.09-.07-.4-.3-.77-.2-1.19-.45-.85-.5-1.81-.77-2.72-.26-.87-.66-1.7-.8-2.61-.39-.36-.34-.9-.53-1.35-.19-.44-.28-.93-.46-1.38-.17-.42-.38-.82-.6-1.22-.32-.59-.5-1.25-.86-1.79-.37-.57-.58-1.21-.94-1.77-.71-1.11-1.37-2.25-2.13-3.34-1.11-1.57-2.36-3-3.76-4.31-.25-.23-.55-.4-.87-.63-.26 0-.52.05-.82.25-.86.57-1.81 1-2.68 1.56-.97.63-1.99 1.19-2.98 1.79-.81.49-1.61 1-2.42 1.49-1.23.74-2.48 1.44-3.68 2.24-.71.47-1.48.85-2.21 1.29-1.23.74-2.45 1.51-3.67 2.25-1.15.69-2.32 1.35-3.45 2.07-1.03.66-2.15 1.18-3.13 1.93-.28.21-.48.54-.89.64-.33.08-.6.42-.92.61-.34.2-.74.3-1.04.54-.89.72-1.96 1.13-2.89 1.8-.71.51-1.53.88-2.28 1.33-1.2.73-2.39 1.48-3.59 2.21-.73.44-1.48.86-2.2 1.31-1.25.77-2.53 1.49-3.76 2.29-1.12.73-2.32 1.34-3.47 2.03-1.13.67-2.23 1.39-3.36 2.07-.44.27-.9.5-1.41.78.48.92.95 1.84 1.43 2.74.68 1.28 1.01 2.72 1.76 3.97.83 1.38 1.42 2.89 2.33 4.23.3.45.44.99.71 1.47.69 1.22 1.26 2.5 2.05 3.66.3.45.46.98.72 1.46.78 1.44 1.58 2.87 2.35 4.32.41.78.75 1.59 1.24 2.33.23.34.3.79.5 1.16.65 1.17 1.26 2.35 1.87 3.54.87 1.67 1.78 3.32 2.7 4.95.36.64.73 1.27 1.07 1.91.28.54.61 1.05.87 1.6.86 1.81 1.93 3.5 2.82 5.3.39.78.94 1.49 1.15 2.37.7.72.9 1.73 1.47 2.53.59.83.98 1.81 1.47 2.71.4.72.83 1.42 1.25 2.13.08.13.14.27.21.4.58 1.11 1.16 2.2 1.85 3.25.54.83.91 1.77 1.39 2.65.4.72.88 1.4 1.25 2.13.38.77.84 1.48 1.3 2.2.31.49.67.96.99 1.45.11.17.17.39.28.66.53.5.96 1.21 1.49 1.82.27.3.55.63.84.93 1.73 1.75 3.45 3.5 5.11 5.31.86.94 1.7 1.9 2.49 2.89.82 1.02 1.73 1.96 2.55 2.97.7.87 1.63 1.53 2.18 2.52.46.13.52.65.88.9.34.24.61.59.91.89.32.32.66.63.97.97.36.4.66.85 1.05 1.23 1.2 1.17 2.38 2.36 3.66 3.44 1 .84 1.91 1.78 2.94 2.57 1.39 1.06 2.74 2.18 4.14 3.22 1.32.99 2.69 1.91 3.99 2.94.55.43 1.22.7 1.78 1.12.62.47 1.33.79 1.92 1.27.51.42 1.15.56 1.66 1 .45.38 1.11.51 1.58.87.79.6 1.77.84 2.52 1.5.22.19.53.28.8.42.83.44 1.79.64 2.44 1.39 1.08.38 2.06 1.01 3.15 1.38.34.11.65.33.98.47 1.37.57 2.74 1.12 4.1 1.68.73.3 1.45.59 2.18.88 1.62.65 3.25 1.31 4.91 1.87 1.06.36 2.06.85 3.11 1.24 1.11.41 2.18.89 3.29 1.27.83.29 1.62.66 2.45.95.26.09.53.14.78.25 1.02.48 2 1.03 2.55 2.09.1.19.27.33.42.52-.86.34-1.73.32-2.53.68-.49.22-1.11 0-1.63-.24-.93-.42-1.86-.88-2.82-1.24-.93-.35-1.87-.7-2.78-1.08-1.28-.54-2.55-1.11-3.84-1.61-1.28-.49-2.54-1.02-3.8-1.53-1.14-.46-2.26-1.02-3.4-1.49-3.5-1.44-6.81-3.27-10.21-4.92-.41-.2-.8-.45-1.18-.69-.37-.23-.71-.49-1.05-.78-.41-.36-.99-.57-1.49-.87-1.74-1.02-3.47-2.05-5.19-3.09-1.08-.65-2.08-1.41-3.18-2.01a24.63 24.63 0 0 1-3.08-2c-1.39-1.06-2.85-2.02-4.22-3.12-1.09-.88-2.11-1.86-3.32-2.6-.05-.03-.09-.09-.14-.14-1.05-.99-2.11-1.97-3.16-2.97-.45-.43-.83-.94-1.33-1.29-.41-.29-.72-.68-1.11-.99-.51-.41-.88-1-1.34-1.49-.63-.66-1.27-1.32-1.94-1.94-.46-.41-.68-1.05-1.28-1.31-.31-.66-.92-1.06-1.39-1.57-.47-.5-1.04-.92-1.43-1.47-.49-.69-1.14-1.21-1.68-1.85-.94-1.12-1.91-2.23-2.9-3.31-.64-.69-1.22-1.45-1.8-2.19-1.23-1.57-2.51-3.11-3.67-4.73-.43-.61-.74-1.28-1.19-1.87-.67-.89-1.32-1.8-1.94-2.72-.61-.92-1.16-1.87-1.75-2.8-.25-.39-.54-.75-.78-1.15-.51-.86-.98-1.76-1.5-2.61-.83-1.35-1.54-2.76-2.32-4.14-.33-.59-.65-1.22-.9-1.87-.25-.65-.65-1.23-.92-1.87-.2-.47-.41-.94-.63-1.41-.21-.47-.43-.94-.58-1.42-.16-.5-.59-.86-.61-1.42-.01-.31-.54-.41-.38-.82-.54-.53-.63-1.31-1.03-1.93-.37-.59-.62-1.32-.96-1.94-.58-1.03-1.04-2.13-1.65-3.14-.25-.42-.43-.87-.68-1.29-.56-.91-1.05-1.85-1.56-2.78-.71-1.31-1.37-2.65-2.21-3.88-.47-.69-.64-1.55-1.29-2.12.04-.62-.44-1-.7-1.47-.75-1.33-1.47-2.67-2.34-3.93-.34-.5-.58-1.07-.91-1.58-.66-1.06-1.2-2.2-1.93-3.22-.42-.59-.63-1.31-1.02-1.92-.74-1.16-1.41-2.36-2.08-3.55-.84-1.47-1.73-2.93-2.36-4.51-.55-1.39-1.32-2.65-1.9-4.01-.04-.08-.13-.14-.25-.25Zm-13.69-28.61c-.17.59-.46 1.12-.45 1.64.01.9-.51 1.69-.42 2.58-.42.99-.46 2.08-.74 3.11-.17.64-.39 1.3-.43 1.98-.03.69-.56 1.27-.4 1.99-.58.78-.23 1.83-.78 2.61-.24 1.51-.71 2.96-1.17 4.41-.18.58-.31 1.18-.54 1.73-.23.56-.22 1.21-.63 1.7-.05.97-.58 1.79-.85 2.69-.24.79-.62 1.57-.92 2.35-.31.82-.71 1.6-1.06 2.4-.86 1.93-1.85 3.81-2.84 5.83v1.22c.01.47-.05.94.04 1.44.13-.11.2-.18.28-.22 2.04-.98 4.08-1.96 6.13-2.94.46-.22.92-.46 1.38-.68.46-.23.9-.51 1.39-.67.49-.17.75-.6 1.21-.82 2.02-.96 3.99-2.02 6.03-2.94 1.82-.82 3.57-1.79 5.35-2.69.7-.35 1.42-.69 2.15-1.04-.11-.11-.16-.15-.19-.2-2.06-4.34-4.36-8.56-6.32-12.95-1.24-2.79-2.72-5.46-4.05-8.21-.5-1.03-1.12-2.01-1.46-3.12-.13-.41-.43-.77-.68-1.19ZM56.98 300c-.99-.82-.92-2-1.33-2.97.33-1.26.94-2.41 1.55-3.55.54-1.02 1.08-2.03 1.61-3.05.25-.48.4-1.01.71-1.48.27-.41.22-1.03.47-1.46.29-.5.3-1.05.5-1.56.21-.54.2-1.17.23-1.77.03-.65 0-1.3 0-2.01-.36-.5-.74-1.03-1.18-1.65v-.17c-.35-.45-.66-.86-.97-1.25-.8-1-1.63-1.97-2.39-2.99-.95-1.28-2.09-2.41-2.98-3.74-.33-.5-.77-.92-1.17-1.38-.95-1.1-1.88-2.21-2.78-3.35-.45-.58-.99-1.08-1.44-1.66-.6-.77-1.37-1.39-1.87-2.24-.05-.08-.14-.14-.2-.21-.74-.8-1.54-1.56-2.2-2.43-.53-.7-1.06-1.39-1.61-2.07-.17-.22-.38-.42-.56-.62-.91-1.04-1.87-2.04-2.83-3.05-1.2-1.26-2.42-2.51-3.56-3.81-1.63-1.85-3.45-3.52-5.16-5.29-.93-.97-1.88-1.91-2.84-2.84-.72-.69-1.38-1.43-2.18-2.04-.6-.45-1-1.15-1.55-1.69-.97-.95-1.94-1.89-2.97-2.77-1.12-.95-2.2-1.94-3.3-2.91-.93-.81-1.86-1.64-2.83-2.41-1.54-1.22-3.05-2.47-4.68-3.58-.61-.42-1.19-.92-1.77-1.39-.81-.66-1.71-1.2-2.43-1.97-.42-.45-.74-.91-.88-1.5-.13-.56-.38-1.11-.27-1.71.73.12 1.44.17 2.11.37.66.2 1.3.46 1.88.92 1.1.87 2.14 1.83 3.32 2.6.55.36 1.02.86 1.52 1.29.96.83 1.96 1.62 2.9 2.48.79.72 1.65 1.38 2.46 2.09 1.28 1.11 2.55 2.23 3.8 3.38.51.47 1.02.96 1.56 1.41 1.35 1.11 2.51 2.43 3.82 3.58.5.44.88.95 1.34 1.41 2.46 2.43 4.91 4.88 7.35 7.34 1.46 1.47 2.91 2.95 4.28 4.5.83.94 1.74 1.8 2.55 2.75 1.14 1.33 2.35 2.61 3.53 3.9.14.16.23.36.35.54.16.23.3.48.49.68.82.84 1.55 1.76 2.29 2.68.56.69 1.19 1.33 1.78 1.99.47.52.95 1.03 1.38 1.59.23.29.47.57.69.87.26.35.51.73.84 1.02.29.26.4.7.81.83.45.87 1.21 1.5 1.75 2.31.4.61.98 1.09 1.43 1.67.67.86 1.42 1.66 2.02 2.59.27.42.64.78.96 1.17.67.8 1.38 1.57 1.99 2.41.32.44.58.94.92 1.38.17.22.35.43.57.69.61-.6 1.42-.81 1.85-1.59.22-.41.73-.68 1.14-.98.91-.67 1.78-1.39 2.68-2.06.97-.73 1.81-1.63 2.91-2.18.33-.17.59-.48.87-.73.58-.52 1.27-.91 1.85-1.42.64-.56 1.38-.98 2.03-1.51.84-.68 1.74-1.3 2.62-1.94.43-.31.87-.59 1.29-.9 1.61-1.21 3.35-2.24 4.91-3.52.5-.4 1.09-.68 1.62-1.05.74-.51 1.45-1.07 2.19-1.59.88-.61 1.79-1.19 2.69-1.79.08-.05.18-.09.22-.16.53-.94 1.54-1.31 2.34-1.91 1.13-.85 2.37-1.55 3.51-2.38 2.43-1.75 4.95-3.36 7.42-5.04 1.21-.82 2.53-1.47 3.75-2.29 1.22-.82 2.54-1.46 3.77-2.27.67-.44 1.45-.76 2.14-1.2 1.16-.72 2.43-1.25 3.59-1.98.81-.51 1.73-.85 2.64-1.18.44-.16.81-.43 1.23-.57.4-.14.81-.22 1.2-.41.77-.35 1.59-.58 2.4-.87.02-.07.04-.16.05-.22 1.36-.61 2.75-.96 4.32-.88-.11.58.09 1.12-.19 1.7-.15.31-.03.76-.03 1.16-.68.5-1.46.77-2.23 1.06-1.81.68-3.61 1.41-5.25 2.46-1.2.77-2.49 1.41-3.7 2.17-1.3.8-2.63 1.54-3.95 2.31-.89.52-1.76 1.09-2.67 1.57-1.21.65-2.35 1.42-3.53 2.13-.47.28-.93.58-1.42.83-1 .52-1.95 1.14-2.91 1.73-.88.54-1.8 1.01-2.69 1.53-.71.42-1.4.87-2.1 1.31-.36.23-.7.54-1.09.67-.44.15-.44.68-.93.8-.42.1-.79.45-1.17.7-.36.23-.69.54-1.08.72-1.46.66-2.7 1.65-4.08 2.44-.79.45-1.57.95-2.34 1.46-1.62 1.06-3.23 2.14-4.83 3.23-.84.57-1.68 1.16-2.5 1.76-.83.61-1.63 1.25-2.46 1.86-1.03.76-1.98 1.62-3.06 2.3-.42.27-.78.64-1.17.96-1.16.95-2.28 1.96-3.55 2.77-.43.67-1.39.81-1.65 1.65-.61.33-1.09.85-1.66 1.22-.85.55-1.52 1.28-2 2.12-.66 1.15-.63 2.74.17 3.88.51.73 1.09 1.41 1.47 2.23.28.63.47 1.25.51 1.95.1 1.87-.71 3.3-1.94 4.59-1.19 1.26-2.66 1.95-4.34 2.3-.57.12-1.15.21-1.7.38-.55.16-1.12.13-1.68.21-.99.13-1.97.38-2.98.38-.1 0-.19.14-.33.25Zm2.8-4.47c.29.52.49 1.12 1.02 1.4.93-.38 1.82-.75 2.71-1.12.17-.07.34-.14.48-.25.5-.39.98-.79 1.37-1.11.24-1.06.53-1.96.44-2.91-.05-.46-.15-.92-.19-1.38-.04-.51-.03-1.03-.05-1.59-.57-.3-1.19-.44-1.87-.4-.09.14-.18.27-.25.4-.28.57-.5 1.18-.85 1.69-.65.96-1.1 2.03-1.69 3.02-.42.7-.75 1.45-1.14 2.23Z" style="stroke-width:0"/><path d="M109.48 237.08c-1.21-.49-2.37-.93-3.5-1.42-.41-.18-.79-.38-1.02-.88-.2-.43-.64-.77-.95-1.17-.87-1.1-1.74-2.2-2.57-3.34-.5-.68-1.07-1.32-1.56-2.01-.5-.71-1.09-1.34-1.56-2.08-.41-.65-.98-1.21-1.43-1.86-.46-.67-.99-1.28-1.51-1.94l.96-1.64c.22.07.53.08.73.24.39.31.76.61 1.22.84.6.3 1.09.82 1.66 1.21.3.2.65.33 1.06.53.3-.69.62-1.35.87-2.05.61-1.67 1.13-3.39 1.99-4.95.65-1.18 1.5-2.37 2.84-2.89.47-.18.91-.36 1.42-.36.2 0 .5-.24.59-.17.44.37.98.09 1.46.28.44.17.96.23 1.36.5.72.48 1.45.98 2.06 1.6 1.17 1.18 2.36 2.35 3.53 3.53.27.27.51.57.83.92v.23c.73.82 1.47 1.58 2.13 2.4.77.97 1.61 1.88 2.4 2.83.49.59 1.05 1.12 1.55 1.71v.36c-1.45.63-2.88 1.25-4.38 1.91-.51-.9-1.02-1.82-1.56-2.73-.59-1-1.19-1.99-1.8-2.97-.41-.65-.91-1.25-1.25-1.93-.17-.35-.48-.54-.66-.9-.27-.55-.77-1-1.22-1.45-.23-.24-.53-.44-.82-.61-.52-.3-1.05-.63-1.61-.83-.94-.34-1.76-1.03-2.94-.93-.38.52-.8 1.1-1.21 1.68-.05.07-.04.18-.09.25-.23.33-.61.64-.66.99-.06.46-.29.8-.43 1.2-.13.37-.29.73-.38 1.11-.15.61.03 1.22.22 1.77.22.63.07 1.37.56 1.92.12 1.07.6 2.04.9 3.05.29.99.75 1.91 1.08 2.89.33.97.67 1.93 1.13 2.86.27.55.34 1.22.61 1.8.06.12-.01.3-.03.48ZM75.81 239.26c.48-.55.97-1.12 1.45-1.67.47.26.88.47 1.26.7.39.24.77.5 1.15.76.35.24.82.32 1.09.69.55 0 .5.77 1.06.77.08-.22.11-.47-.05-.74-.21-.35-.12-.77-.25-1.17-.21-.65-.26-1.38-.21-2.06.07-.97.3-1.92.66-2.85.68-1.75 2.08-2.64 3.69-3.3.73-.3 1.49-.58 2.3-.6 1.43-.04 2.72.45 3.94 1.11.96.51 1.84 1.13 2.67 1.85.83.72 1.56 1.53 2.29 2.34 1.06 1.17 1.93 2.48 2.56 3.93.4.91.72 1.87.89 2.86.05.32.16.64.29 1.14-.32-.16-.47-.23-.62-.3-.75-.31-1.5-.63-2.26-.92-.96-.37-1.76-.93-2.25-1.86-.29-.56-.79-.96-1.13-1.49-.4-.61-.95-1.12-1.43-1.66-.6-.67-1.22-1.31-1.79-2-.54-.66-1.28-1-2.04-1.22-.53-.15-1.08-.36-1.66-.25-.3.05-.6.14-.91.22-1.07.72-1.34 1.92-1.64 3.16.1.32.32.71.35 1.12.06.87.48 1.64.69 2.47.19.77.46 1.55.83 2.29.49.99.73 2.1 1.18 3.13.55 1.27.96 2.6 1.43 3.91 0 .02-.02.05-.03.07-.88.09-1.75.18-2.61.27-.27-.2-.54-.37-.77-.58-2.99-2.71-5.8-5.59-8.64-8.45-.52-.52-.96-1.1-1.47-1.69ZM67.6 249.19c.37.19.67.34.97.5.48.58.56 1.33.78 2.02.21.65.16 1.32.19 1.98.02.43.15.86.18 1.29.07 1.06-.32 2.09-.2 3.15.02.19-.14.4-.18.6-.14.76-.26 1.52-.4 2.28-.02.08-.12.15-.18.22.37.35.69-.02.9-.17.51-.35 1.29-.32 1.51-1.08.15-.02.34.01.45-.07 1.06-.79 2.32-1.23 3.39-1.99.65-.46 1.23-.94 1.58-1.69.37-.8.79-1.57 1.22-2.43.73.24 1.42.47 2.09.69-.06.54.02 1.11-.21 1.5-.26.44.07.98-.36 1.33-.05.91-.77 1.32-1.35 1.84-.24.21-.5.39-.72.61-.18.18-.4.28-.58.51-.35.47-.86.85-1.35 1.19-.95.67-1.94 1.31-2.91 1.94-.89.58-1.85 1.04-2.84 1.42-.25.1-.49.23-.8.38-.72-.02-1.48.32-2.29.21-.74-.1-1.4-.4-2.32-.76-.28-.24-.75-.65-1.25-1.05-.58-.47-.91-1.12-1.29-1.72-.37-.58-.76-1.14-.97-1.85-.2-.67-.56-1.33-.79-2.02-.17-.53-.36-1.05-.34-1.62.02-.52-.05-1.05.02-1.56.06-.48.25-.94.38-1.41.16-.59.45-1.17.82-1.61.81-.96 1.69-1.9 2.92-2.37.4-.15.8-.33 1.25-.3.27.01.57.1.81-.17.07-.08.32-.05.47 0 .23.07.42.24.71.2.25-.04.52 0 .69 0Zm-2.06 2.3c-.42.57-.96.96-1.36 1.52-.38.53-.82 1.01-1.11 1.64-.08 1.89.1 1.43.79 4.15.04.14.18.26.24.34h1.29c.03-.62.33-1.14.46-1.71.14-.59.18-1.2.41-1.78.21-.53.22-1.15.38-1.71.17-.59.31-1.17.35-1.73-.5-.25-.93-.47-1.45-.73Z" style="stroke-width:0"/></svg>